<svg xmlns="http://www.w3.org/2000/svg" xmlns:xlink="http://www.w3.org/1999/xlink" width="320" zoomAndPan="magnify" viewBox="0 0 240 239.999995" height="320" preserveAspectRatio="xMidYMid meet" version="1.0"><defs><g/></defs><rect x="-24" width="288" fill="#ffffff" y="-23.999999" height="287.999994" fill-opacity="1"/><rect x="-24" width="288" fill="#000000" y="-23.999999" height="287.999994" fill-opacity="1"/><g fill="#ffffff" fill-opacity="1"><g transform="translate(73.728514, 161.624988)"><g><path d="M 85.257812 -29.257812 L 83.15625 -29.257812 C 81.335938 -12.320312 65.238281 -3.078125 54.316406 -3.078125 L 30.519531 -3.078125 L 30.519531 -46.617188 L 37.378906 -46.617188 C 49.558594 -46.617188 56.839844 -40.179688 56.839844 -27.4375 L 58.9375 -27.4375 L 58.9375 -68.457031 L 56.839844 -68.457031 C 56.839844 -56.558594 48.160156 -49.976562 37.378906 -49.976562 L 30.519531 -49.976562 L 30.519531 -90.996094 L 56.417969 -90.996094 C 67.335938 -90.996094 76.578125 -84.835938 77.835938 -70.558594 L 79.9375 -70.558594 L 79.9375 -94.078125 L 5.039062 -94.078125 L 5.039062 -90.996094 L 16.238281 -90.996094 L 16.238281 -3.078125 L 5.039062 -3.078125 L 5.039062 0 L 85.257812 0 Z M 85.257812 -29.257812 "/></g></g></g></svg>