<?xml version="1.0" encoding="UTF-8"?>
<svg version="1.1" xmlns="http://www.w3.org/2000/svg" width="500" height="500">
<path d="M0 0 C1.07263961 -0.00523668 2.14527923 -0.01047336 3.25042307 -0.01586872 C6.81563845 -0.03077304 10.38070908 -0.03157177 13.94595337 -0.03224182 C16.51445759 -0.03986993 19.08295954 -0.04829854 21.65145874 -0.0574646 C28.61067262 -0.08021299 35.56985582 -0.08822462 42.52910185 -0.09329104 C46.88541963 -0.09656078 51.2417287 -0.10309099 55.59804153 -0.11029243 C67.69049734 -0.12984728 79.78294508 -0.1462573 91.87541771 -0.14916897 C93.03383806 -0.14945032 93.03383806 -0.14945032 94.21566085 -0.14973736 C95.78086003 -0.15010358 97.34605921 -0.15046728 98.91125838 -0.15082847 C99.68808859 -0.15101128 100.46491879 -0.1511941 101.26528931 -0.15138245 C102.04308257 -0.151563 102.82087583 -0.15174354 103.62223859 -0.15192956 C116.204223 -0.1554656 128.78603568 -0.18245718 141.36796062 -0.21988034 C154.32627157 -0.25811028 167.28449764 -0.27732752 180.24286616 -0.27762848 C187.50206815 -0.27820986 194.76106535 -0.28649296 202.02021408 -0.31562614 C208.85761291 -0.34294302 215.69460279 -0.34392106 222.53203583 -0.3279705 C225.02592224 -0.32616876 227.5198327 -0.33272973 230.01366806 -0.34878922 C264.30652034 -0.55596092 293.13016045 9.18440168 317.79605103 33.27415466 C318.52437134 33.94059998 319.25269165 34.60704529 320.00308228 35.29368591 C339.21466675 53.2927049 350.11304773 81.96456363 351.07279587 107.88882637 C351.22162729 114.47027354 351.20224009 121.05107038 351.18423462 127.6337738 C351.18830751 130.15216295 351.1936534 132.6705503 351.20016479 135.18893433 C351.21235172 141.2794103 351.21066874 147.36974038 351.20192687 153.46021802 C351.19511236 158.4158243 351.19424974 163.37139956 351.19749832 168.3270092 C351.19795802 169.03612951 351.19841772 169.74524981 351.19889135 170.47585861 C351.19985066 171.91704684 351.2008233 173.35823506 351.20180912 174.79942327 C351.21033415 188.26746551 351.20057413 201.73544619 351.18440802 215.20347833 C351.17100456 226.7261727 351.17333878 238.24877637 351.18716431 249.77146912 C351.20326638 263.19753856 351.2095135 276.62355426 351.20032752 290.04963201 C351.19937201 291.4847933 351.19842889 292.91995459 351.19749832 294.35511589 C351.19703549 295.06099015 351.19657267 295.76686442 351.19609582 296.49412881 C351.19351998 301.43661085 351.19784627 306.37905841 351.20493698 311.32153511 C351.21429356 317.98904026 351.20750821 324.65634925 351.19025421 331.32384682 C351.18631193 333.76016203 351.18738431 336.19649175 351.19404221 338.63280106 C351.23443513 354.92463093 350.63176979 370.30664679 344.73355103 385.71165466 C344.43755005 386.49604919 344.14154907 387.28044373 343.83657837 388.08860779 C338.70557757 401.10561441 331.25413353 412.96884979 321.79605103 423.27415466 C321.35035767 423.76222595 320.90466431 424.25029724 320.44546509 424.75315857 C301.7357245 445.01027303 274.85816233 458.6724229 247.11016369 460.44581103 C239.5830195 460.7317704 232.05295368 460.69369848 224.52163696 460.6782074 C222.00003254 460.68391967 219.47843071 460.69088722 216.95683289 460.69900513 C210.85352062 460.71501038 204.750348 460.71705605 198.6470212 460.71179222 C193.67855219 460.70772801 188.71011342 460.70922058 183.74164581 460.71454048 C183.03076955 460.7152889 182.31989328 460.71603733 181.58747531 460.71680843 C180.14267148 460.71834013 178.69786765 460.71987848 177.25306383 460.72142339 C163.74437295 460.73510917 150.2357402 460.72973885 136.72705069 460.71823818 C124.41308863 460.70831382 112.099277 460.72123966 99.78533813 460.74517237 C87.09242017 460.76965269 74.39957201 460.77914918 61.70663095 460.77251965 C54.60016012 460.76904667 47.49380476 460.77113087 40.38735199 460.78877068 C33.69928882 460.80516824 27.01155597 460.80017321 20.32348442 460.78146553 C17.8840102 460.77780715 15.44451437 460.78080662 13.0050602 460.79135132 C-17.05897516 460.91127532 -46.15382721 454.91837146 -69.20394897 434.27415466 C-70.0934021 433.52649841 -70.98285522 432.77884216 -71.89926147 432.00852966 C-79.09674396 425.79343336 -84.77592783 419.02022482 -90.20394897 411.27415466 C-90.90390991 410.29059998 -91.60387085 409.30704529 -92.32504272 408.29368591 C-96.6301293 401.80668412 -99.69470852 395.13532233 -102.51644897 387.89915466 C-102.84209839 387.07415466 -103.1677478 386.24915466 -103.50326538 385.39915466 C-109.5208495 369.22709293 -109.64215127 353.58124704 -109.60800171 336.53074646 C-109.61371258 333.94693203 -109.6206796 331.36312012 -109.62879944 328.77931213 C-109.64589185 322.52080368 -109.64684742 316.26239604 -109.64158653 310.00387033 C-109.63752536 304.91045579 -109.63901135 299.81707077 -109.64433479 294.72365761 C-109.64508322 293.99541624 -109.64583164 293.26717487 -109.64660274 292.51686558 C-109.64813441 291.03686675 -109.64967276 289.55686793 -109.65121771 288.07686911 C-109.66490837 274.23441864 -109.65952948 260.39202487 -109.64803249 246.54957572 C-109.63810551 233.92380714 -109.65103762 221.29818521 -109.67496669 208.67243924 C-109.69943001 195.66541952 -109.70894775 182.6584679 -109.70231396 169.65142566 C-109.69883751 162.36615248 -109.7009487 155.08099193 -109.71856499 147.79573631 C-109.73493638 140.94108574 -109.72999349 134.08671797 -109.71125984 127.23207474 C-109.70759506 124.72887154 -109.7106201 122.22564736 -109.72114563 119.72246361 C-109.83718552 89.82323184 -103.22392332 63.30665848 -83.20394897 40.27415466 C-82.51687866 39.45431091 -81.82980835 38.63446716 -81.12191772 37.78977966 C-60.9354206 14.36616859 -31.02785004 -0.07639831 0 0 Z " fill="#B6FE32" transform="translate(129.20394897460938,19.725845336914063)"/>
<path d="M0 0 C74.58 0 149.16 0 226 0 C226 13.2 226 26.4 226 40 C151.42 40 76.84 40 0 40 C0 26.8 0 13.6 0 0 Z " fill="#010200" transform="translate(137,320)"/>
<path d="M0 0 C74.58 0 149.16 0 226 0 C226 13.2 226 26.4 226 40 C151.42 40 76.84 40 0 40 C0 26.8 0 13.6 0 0 Z " fill="#010200" transform="translate(137,140)"/>
<path d="M0 0 C41.25 0 82.5 0 125 0 C125 13.2 125 26.4 125 40 C83.75 40 42.5 40 0 40 C0 26.8 0 13.6 0 0 Z " fill="#010100" transform="translate(137,230)"/>
</svg>
